<?xml version="1.0" encoding="UTF-8" standalone="no"?>
<!DOCTYPE svg PUBLIC "-//W3C//DTD SVG 1.1//EN" "http://www.w3.org/Graphics/SVG/1.1/DTD/svg11.dtd">
<svg width="100%" height="100%" viewBox="0 0 100 100" version="1.1" xmlns="http://www.w3.org/2000/svg" xmlns:xlink="http://www.w3.org/1999/xlink" xml:space="preserve" xmlns:serif="http://www.serif.com/" style="fill-rule:evenodd;clip-rule:evenodd;stroke-linejoin:round;stroke-miterlimit:2;">
    <g transform="matrix(1.14822,0,0,1.14822,-13.1382,-10.0042)">
        <path d="M86.412,8.713C93.106,8.713 98.533,14.14 98.533,20.834L98.533,83.682C98.533,90.377 93.106,95.804 86.412,95.804L23.564,95.804C16.869,95.804 11.442,90.377 11.442,83.682L11.442,20.834C11.442,14.14 16.869,8.713 23.564,8.713L86.412,8.713Z" style="fill:rgb(0,20,137);"/>
    </g>
    <g transform="matrix(6.17004,0,0,6.17004,-226.149,-367.087)">
        <path d="M39.04,63.79L37.428,63.79L37.428,62.595L42.163,62.595L42.163,63.79L40.557,63.79L40.557,72.603L39.04,72.603L39.04,63.79Z" style="fill:white;fill-rule:nonzero;"/>
    </g>
    <g transform="matrix(2.67951,0,0,2.67951,-74.207,-136.93)">
        <path d="M40.446,72.691C40.204,72.691 39.939,72.655 39.652,72.585C39.365,72.515 39.092,72.368 38.834,72.146C38.577,71.923 38.366,71.588 38.202,71.141C38.038,70.693 37.956,70.095 37.956,69.345L37.956,65.8C37.956,65.198 38.011,64.697 38.123,64.297C38.234,63.897 38.38,63.576 38.562,63.336C38.744,63.096 38.945,62.916 39.166,62.797C39.386,62.678 39.608,62.6 39.831,62.563C40.053,62.526 40.258,62.507 40.446,62.507C40.626,62.507 40.826,62.525 41.046,62.56C41.267,62.595 41.487,62.67 41.706,62.785C41.924,62.901 42.125,63.077 42.306,63.316C42.488,63.554 42.634,63.874 42.746,64.276C42.857,64.679 42.913,65.187 42.913,65.8L42.913,69.345C42.913,70.087 42.827,70.681 42.655,71.126C42.483,71.571 42.266,71.906 42.004,72.131C41.743,72.356 41.472,72.505 41.193,72.579C40.914,72.653 40.665,72.691 40.446,72.691ZM40.446,71.501C40.747,71.501 40.969,71.388 41.114,71.161C41.258,70.935 41.331,70.511 41.331,69.89L41.331,65.378C41.331,64.737 41.258,64.297 41.114,64.057C40.969,63.817 40.747,63.696 40.446,63.696C40.137,63.696 39.91,63.817 39.763,64.057C39.617,64.297 39.543,64.737 39.543,65.378L39.543,69.89C39.543,70.511 39.617,70.935 39.763,71.161C39.91,71.388 40.137,71.501 40.446,71.501Z" style="fill:white;fill-rule:nonzero;"/>
        <path d="M43.768,62.595L45.221,62.595L45.895,68.642L45.971,70.054L46.118,70.054L46.258,68.642L47.336,62.595L48.549,62.595L49.581,68.642L49.698,70.054L49.85,70.054L49.92,68.642L50.536,62.595L51.995,62.595L50.594,72.603L49.053,72.603L48.227,67.792L47.969,65.7L47.852,65.7L47.6,67.792L46.733,72.603L45.209,72.603L43.768,62.595Z" style="fill:white;fill-rule:nonzero;"/>
        <path d="M53.09,62.595L56.917,62.595L56.917,63.79L54.608,63.79L54.608,66.784L56.418,66.784L56.418,67.98L54.608,67.98L54.608,71.407L56.917,71.407L56.917,72.603L53.09,72.603L53.09,62.595Z" style="fill:white;fill-rule:nonzero;"/>
        <path d="M57.825,62.595L59.471,62.595C59.702,62.595 59.956,62.609 60.233,62.636C60.51,62.663 60.786,62.725 61.059,62.82C61.333,62.916 61.583,63.067 61.809,63.272C62.036,63.477 62.218,63.756 62.357,64.109C62.496,64.463 62.565,64.911 62.565,65.454L62.565,65.706C62.565,67.206 62.114,68.171 61.211,68.601L62.858,72.603L61.241,72.603L59.864,68.859L59.342,68.859L59.342,72.603L57.825,72.603L57.825,62.595ZM59.542,67.763C60.096,67.763 60.478,67.634 60.687,67.376C60.896,67.118 61.001,66.653 61.001,65.982L61.001,65.191C61.001,64.675 60.902,64.296 60.705,64.054C60.507,63.812 60.12,63.691 59.542,63.691L59.342,63.691L59.342,67.763L59.542,67.763Z" style="fill:white;fill-rule:nonzero;"/>
    </g>
    <g transform="matrix(0.891179,0,0,0.891179,-6.07406,3.89041)">
        <path d="M37.668,70.575C37.668,70.36 37.681,70.161 37.707,69.978C37.732,69.794 37.77,69.599 37.821,69.392L38.999,69.392L38.999,69.837C38.999,70.376 39.081,70.789 39.245,71.076C39.409,71.363 39.661,71.507 40.001,71.507C40.586,71.507 40.879,71.22 40.879,70.646C40.879,70.423 40.832,70.189 40.736,69.943C40.64,69.696 40.454,69.396 40.176,69.04L38.594,67.054C38.317,66.694 38.101,66.335 37.947,65.976C37.793,65.616 37.715,65.216 37.715,64.775C37.715,64.11 37.921,63.567 38.334,63.143C38.746,62.719 39.317,62.507 40.047,62.507C40.637,62.507 41.1,62.613 41.436,62.826C41.772,63.039 42.009,63.308 42.148,63.632C42.287,63.956 42.356,64.288 42.356,64.628C42.356,64.843 42.339,65.041 42.306,65.223C42.273,65.404 42.235,65.605 42.192,65.823L41.02,65.823L41.02,65.343C41.02,64.816 40.936,64.409 40.768,64.124C40.6,63.839 40.36,63.696 40.047,63.696C39.762,63.696 39.546,63.776 39.4,63.934C39.253,64.092 39.18,64.304 39.18,64.569C39.18,64.796 39.227,65.002 39.321,65.188C39.415,65.373 39.534,65.564 39.678,65.759L41.442,67.997C41.766,68.415 42.013,68.813 42.183,69.19C42.353,69.567 42.438,69.985 42.438,70.446C42.438,71.138 42.217,71.686 41.776,72.09C41.334,72.494 40.747,72.696 40.012,72.696C39.411,72.696 38.939,72.594 38.597,72.389C38.255,72.184 38.015,71.919 37.876,71.595C37.738,71.271 37.668,70.931 37.668,70.575Z" style="fill:white;fill-rule:nonzero;"/>
        <path d="M45.936,72.691C45.694,72.691 45.429,72.655 45.142,72.585C44.855,72.515 44.583,72.368 44.325,72.146C44.067,71.923 43.856,71.588 43.692,71.141C43.528,70.693 43.446,70.095 43.446,69.345L43.446,65.8C43.446,65.198 43.501,64.697 43.613,64.297C43.724,63.897 43.871,63.576 44.052,63.336C44.234,63.096 44.435,62.916 44.656,62.797C44.876,62.678 45.097,62.6 45.318,62.563C45.539,62.526 45.743,62.507 45.93,62.507C46.446,62.507 46.854,62.603 47.155,62.794C47.456,62.985 47.671,63.242 47.802,63.565C47.933,63.887 47.999,64.241 47.999,64.628C47.999,64.843 47.982,65.041 47.949,65.223C47.916,65.404 47.877,65.605 47.834,65.823L46.663,65.823L46.663,65.343C46.663,64.245 46.405,63.696 45.889,63.696C45.612,63.696 45.4,63.817 45.253,64.057C45.107,64.297 45.034,64.737 45.034,65.378L45.034,69.89C45.034,70.511 45.107,70.935 45.253,71.161C45.4,71.388 45.627,71.501 45.936,71.501C46.151,71.501 46.329,71.41 46.469,71.229C46.61,71.047 46.68,70.755 46.68,70.353L46.68,69.403L48.01,69.403L48.01,70.329C48.01,71.13 47.833,71.724 47.477,72.11C47.122,72.497 46.608,72.691 45.936,72.691Z" style="fill:white;fill-rule:nonzero;"/>
        <path d="M50.213,62.595L51.924,62.595L53.793,72.603L52.27,72.603L51.995,70.81L50.143,70.81L49.879,72.603L48.35,72.603L50.213,62.595ZM51.819,69.667L51.104,64.657L51.04,64.657L50.319,69.667L51.819,69.667Z" style="fill:white;fill-rule:nonzero;"/>
        <path d="M54.702,62.595L58.528,62.595L58.528,63.837L56.219,63.837L56.219,66.784L58.03,66.784L58.03,67.98L56.219,67.98L56.219,72.603L54.702,72.603L54.702,62.595Z" style="fill:white;fill-rule:nonzero;"/>
        <path d="M59.348,62.595L63.174,62.595L63.174,63.837L60.866,63.837L60.866,66.784L62.676,66.784L62.676,67.98L60.866,67.98L60.866,72.603L59.348,72.603L59.348,62.595Z" style="fill:white;fill-rule:nonzero;"/>
        <path d="M66.239,72.691C65.997,72.691 65.732,72.655 65.445,72.585C65.158,72.515 64.885,72.368 64.627,72.146C64.37,71.923 64.159,71.588 63.995,71.141C63.831,70.693 63.749,70.095 63.749,69.345L63.749,65.8C63.749,65.198 63.804,64.697 63.916,64.297C64.027,63.897 64.173,63.576 64.355,63.336C64.537,63.096 64.738,62.916 64.959,62.797C65.179,62.678 65.401,62.6 65.624,62.563C65.846,62.526 66.051,62.507 66.239,62.507C66.418,62.507 66.619,62.525 66.839,62.56C67.06,62.595 67.28,62.67 67.499,62.785C67.717,62.901 67.918,63.077 68.099,63.316C68.281,63.554 68.427,63.874 68.539,64.276C68.65,64.679 68.706,65.187 68.706,65.8L68.706,69.345C68.706,70.087 68.62,70.681 68.448,71.126C68.276,71.571 68.059,71.906 67.797,72.131C67.536,72.356 67.265,72.505 66.986,72.579C66.707,72.653 66.458,72.691 66.239,72.691ZM66.239,71.501C66.54,71.501 66.762,71.388 66.907,71.161C67.051,70.935 67.124,70.511 67.124,69.89L67.124,65.378C67.124,64.737 67.051,64.297 66.907,64.057C66.762,63.817 66.54,63.696 66.239,63.696C65.93,63.696 65.703,63.817 65.556,64.057C65.41,64.297 65.336,64.737 65.336,65.378L65.336,69.89C65.336,70.511 65.41,70.935 65.556,71.161C65.703,71.388 65.93,71.501 66.239,71.501Z" style="fill:white;fill-rule:nonzero;"/>
        <path d="M70.2,62.595L71.717,62.595L71.717,71.407L73.786,71.407L73.786,72.603L70.2,72.603L70.2,62.595Z" style="fill:white;fill-rule:nonzero;"/>
        <path d="M76.112,72.603L74.536,72.603L74.536,62.595L76.112,62.595C76.397,62.595 76.991,62.636 76.991,62.636C76.991,62.636 77.582,62.734 77.861,62.847C78.14,62.96 78.391,63.143 78.614,63.395C78.836,63.647 79.013,63.994 79.144,64.438C79.275,64.881 79.34,65.45 79.34,66.146L79.34,69.052C79.34,69.747 79.275,70.318 79.144,70.763C79.013,71.208 78.836,71.557 78.614,71.809C78.391,72.061 78.14,72.242 77.861,72.354C77.582,72.465 77.292,72.534 76.991,72.562C76.69,72.589 76.397,72.603 76.112,72.603ZM76.053,63.749L76.053,71.448L76.381,71.448C76.749,71.448 77.031,71.382 77.228,71.249C77.425,71.116 77.562,70.878 77.638,70.534C77.714,70.191 77.752,69.706 77.752,69.081L77.752,66.116C77.752,65.487 77.714,65.002 77.638,64.66C77.562,64.318 77.425,64.081 77.228,63.948C77.031,63.816 76.749,63.749 76.381,63.749L76.053,63.749Z" style="fill:white;fill-rule:nonzero;"/>
        <g transform="matrix(1,0,0,1,-15.9841,0)">
            <path d="M100.083,70.446L100.083,68.554L98.489,68.554L98.489,67.405L100.083,67.405L100.083,65.571L101.249,65.571L101.249,67.405L102.854,67.405L102.854,68.554L101.249,68.554L101.249,70.446L100.083,70.446Z" style="fill:white;fill-rule:nonzero;"/>
        </g>
    </g>
    <g transform="matrix(0.891179,0,0,0.891179,-6.07406,15.0956)">
        <path d="M37.668,70.575C37.668,70.36 37.681,70.161 37.707,69.978C37.732,69.794 37.77,69.599 37.821,69.392L38.999,69.392L38.999,69.837C38.999,70.376 39.081,70.789 39.245,71.076C39.409,71.363 39.661,71.507 40.001,71.507C40.586,71.507 40.879,71.22 40.879,70.646C40.879,70.423 40.832,70.189 40.736,69.943C40.64,69.696 40.454,69.396 40.176,69.04L38.594,67.054C38.317,66.694 38.101,66.335 37.947,65.976C37.793,65.616 37.715,65.216 37.715,64.775C37.715,64.11 37.921,63.567 38.334,63.143C38.746,62.719 39.317,62.507 40.047,62.507C40.637,62.507 41.1,62.613 41.436,62.826C41.772,63.039 42.009,63.308 42.148,63.632C42.287,63.956 42.356,64.288 42.356,64.628C42.356,64.843 42.339,65.041 42.306,65.223C42.273,65.404 42.235,65.605 42.192,65.823L41.02,65.823L41.02,65.343C41.02,64.816 40.936,64.409 40.768,64.124C40.6,63.839 40.36,63.696 40.047,63.696C39.762,63.696 39.546,63.776 39.4,63.934C39.253,64.092 39.18,64.304 39.18,64.569C39.18,64.796 39.227,65.002 39.321,65.188C39.415,65.373 39.534,65.564 39.678,65.759L41.442,67.997C41.766,68.415 42.013,68.813 42.183,69.19C42.353,69.567 42.438,69.985 42.438,70.446C42.438,71.138 42.217,71.686 41.776,72.09C41.334,72.494 40.747,72.696 40.012,72.696C39.411,72.696 38.939,72.594 38.597,72.389C38.255,72.184 38.015,71.919 37.876,71.595C37.738,71.271 37.668,70.931 37.668,70.575Z" style="fill:white;fill-rule:nonzero;"/>
        <path d="M44.717,62.595L46.428,62.595L48.297,72.603L46.774,72.603L46.499,70.81L44.647,70.81L44.383,72.603L42.854,72.603L44.717,62.595ZM46.323,69.667L45.608,64.657L45.543,64.657L44.823,69.667L46.323,69.667Z" style="fill:white;fill-rule:nonzero;"/>
        <path d="M49.206,62.595L53.032,62.595L53.032,63.837L50.723,63.837L50.723,66.784L52.534,66.784L52.534,67.98L50.723,67.98L50.723,72.603L49.206,72.603L49.206,62.595Z" style="fill:white;fill-rule:nonzero;"/>
        <path d="M53.852,62.595L57.678,62.595L57.678,63.79L55.37,63.79L55.37,66.784L57.18,66.784L57.18,67.98L55.37,67.98L55.37,71.407L57.678,71.407L57.678,72.603L53.852,72.603L53.852,62.595Z" style="fill:white;fill-rule:nonzero;"/>
        <path d="M59.729,63.79L58.118,63.79L58.118,62.595L62.852,62.595L62.852,63.79L61.247,63.79L61.247,72.603L59.729,72.603L59.729,63.79Z" style="fill:white;fill-rule:nonzero;"/>
        <path d="M65.12,69.093L63.163,62.595L64.692,62.595L65.852,67.423L65.922,67.423L67.083,62.595L68.606,62.595L66.637,69.093L66.637,72.603L65.12,72.603L65.12,69.093Z" style="fill:white;fill-rule:nonzero;"/>
        <path d="M72.081,62.595L73.282,62.595L75.725,69.175L75.76,69.175C75.745,68.968 75.724,68.736 75.699,68.481C75.673,68.225 75.651,67.917 75.631,67.558C75.612,67.198 75.602,66.761 75.602,66.245L75.602,62.595L76.95,62.595L76.95,72.603L75.737,72.603L73.305,66.198L73.258,66.198C73.278,66.433 73.299,66.689 73.323,66.966C73.346,67.243 73.368,67.593 73.387,68.015C73.407,68.437 73.417,68.985 73.417,69.661L73.417,72.603L72.081,72.603L72.081,62.595Z" style="fill:white;fill-rule:nonzero;"/>
        <path d="M78.602,62.595L82.428,62.595L82.428,63.79L80.12,63.79L80.12,66.784L81.93,66.784L81.93,67.98L80.12,67.98L80.12,71.407L82.428,71.407L82.428,72.603L78.602,72.603L78.602,62.595Z" style="fill:white;fill-rule:nonzero;"/>
        <path d="M84.479,63.79L82.868,63.79L82.868,62.595L87.602,62.595L87.602,63.79L85.997,63.79L85.997,72.603L84.479,72.603L84.479,63.79Z" style="fill:white;fill-rule:nonzero;"/>
        <path d="M89.612,63.79L88.001,63.79L88.001,62.595L92.735,62.595L92.735,63.79L91.129,63.79L91.129,72.603L89.612,72.603L89.612,63.79Z" style="fill:white;fill-rule:nonzero;"/>
        <rect x="93.561" y="62.595" width="1.518" height="10.008" style="fill:white;fill-rule:nonzero;"/>
        <path d="M96.731,62.595L97.932,62.595L100.376,69.175L100.411,69.175C100.395,68.968 100.375,68.736 100.349,68.481C100.324,68.225 100.301,67.917 100.282,67.558C100.262,67.198 100.252,66.761 100.252,66.245L100.252,62.595L101.6,62.595L101.6,72.603L100.387,72.603L97.956,66.198L97.909,66.198C97.928,66.433 97.95,66.689 97.973,66.966C97.997,67.243 98.018,67.593 98.038,68.015C98.057,68.437 98.067,68.985 98.067,69.661L98.067,72.603L96.731,72.603L96.731,62.595Z" style="fill:white;fill-rule:nonzero;"/>
        <path d="M105.333,72.696C105.192,72.696 105.025,72.675 104.832,72.632C104.638,72.589 104.441,72.505 104.24,72.38C104.039,72.255 103.851,72.069 103.677,71.823C103.503,71.577 103.363,71.253 103.255,70.851C103.148,70.448 103.094,69.946 103.094,69.345L103.094,65.8C103.094,65.198 103.151,64.697 103.264,64.297C103.377,63.897 103.527,63.576 103.712,63.336C103.898,63.096 104.104,62.916 104.331,62.797C104.557,62.678 104.784,62.6 105.01,62.563C105.237,62.526 105.446,62.507 105.637,62.507C106.18,62.507 106.611,62.603 106.929,62.794C107.248,62.985 107.476,63.242 107.615,63.565C107.753,63.887 107.823,64.241 107.823,64.628C107.823,64.843 107.807,65.041 107.776,65.223C107.745,65.404 107.708,65.605 107.665,65.823L106.493,65.823L106.493,65.343C106.493,64.245 106.194,63.696 105.596,63.696C105.276,63.696 105.043,63.817 104.899,64.057C104.754,64.297 104.682,64.737 104.682,65.378L104.682,69.89C104.682,70.511 104.756,70.936 104.905,71.164C105.053,71.393 105.288,71.507 105.608,71.507C105.944,71.507 106.188,71.344 106.34,71.018C106.493,70.692 106.569,70.288 106.569,69.808L106.569,68.53L105.79,68.53L105.79,67.534L108.022,67.534L108.022,72.603L107.038,72.603L106.874,71.648C106.733,71.925 106.526,72.169 106.252,72.38C105.979,72.591 105.672,72.696 105.333,72.696Z" style="fill:white;fill-rule:nonzero;"/>
    </g>
</svg>
